HIERARCHY
ROOT hip
{
  OFFSET 0 0 0
  CHANNELS 6 Xposition Yposition Zposition Zrotation Yrotation Xrotation
  JOINT abdomen
  {
    OFFSET 0 20.6881 -0.73152
    CHANNELS 3 Zrotation Xrotation Yrotation
    JOINT chest
    {
      OFFSET 0 11.7043 -0.48768
      CHANNELS 3 Zrotation Xrotation Yrotation
      JOINT neck
      {
        OFFSET 0 22.1894 -2.19456
        CHANNELS 3 Zrotation Xrotation Yrotation
        JOINT head
        {
          OFFSET -0.24384 7.07133 1.2192
          CHANNELS 3 Zrotation Xrotation Yrotation
          JOINT leftEye
          {
            OFFSET 4.14528 8.04674 8.04672
            CHANNELS 3 Zrotation Xrotation Yrotation
            End Site
            {
              OFFSET 1 0 0
            }
          }
          JOINT rightEye
          {
            OFFSET -3.6576 8.04674 8.04672
            CHANNELS 3 Zrotation Xrotation Yrotation
            End Site
            {
              OFFSET 1 0 0
            }
          }
        }
      }
      JOINT rCollar
      {
        OFFSET -2.68224 19.2634 -4.8768
        CHANNELS 3 Zrotation Xrotation Yrotation
        JOINT rShldr
        {
          OFFSET -8.77824 -1.95073 1.46304
          CHANNELS 3 Zrotation Xrotation Yrotation
          JOINT rForeArm
          {
            OFFSET -28.1742 -1.7115 0.48768
            CHANNELS 3 Zrotation Xrotation Yrotation
            JOINT rHand
            {
              OFFSET -22.5879 0.773209 7.07136
              CHANNELS 3 Zrotation Xrotation Yrotation
              JOINT rThumb1
              {
                OFFSET -1.2192 -0.487915 3.41376
                CHANNELS 3 Zrotation Xrotation Yrotation
                JOINT rThumb2
                {
                  OFFSET -3.37035 -0.52449 3.41376
                  CHANNELS 3 Zrotation Xrotation Yrotation
                  End Site
                  {
                    OFFSET -1.78271 -1.18214 1.43049
                  }
                }
              }
              JOINT rIndex1
              {
                OFFSET -7.75947 0.938293 5.60832
                CHANNELS 3 Zrotation Xrotation Yrotation
                JOINT rIndex2
                {
                  OFFSET -2.54057 -0.884171 1.56538
                  CHANNELS 3 Zrotation Xrotation Yrotation
                  End Site
                  {
                    OFFSET -1.62519 -0.234802 1.16502
                  }
                }
              }
              JOINT rMid1
              {
                OFFSET -8.24714 1.18213 3.41376
                CHANNELS 3 Zrotation Xrotation Yrotation
                JOINT rMid2
                {
                  OFFSET -3.10165 -0.590103 1.0647
                  CHANNELS 3 Zrotation Xrotation Yrotation
                  End Site
                  {
                    OFFSET -2.48547 -0.328903 0.83742
                  }
                }
              }
              JOINT rRing1
              {
                OFFSET -8.82822 0.546677 1.51678
                CHANNELS 3 Zrotation Xrotation Yrotation
                JOINT rRing2
                {
                  OFFSET -2.60934 -0.819778 -0.0198488
                  CHANNELS 3 Zrotation Xrotation Yrotation
                  End Site
                  {
                    OFFSET -2.33842 -0.294052 0.168128
                  }
                }
              }
              JOINT rPinky1
              {
                OFFSET -8.27202 -0.0477905 -0.4584
                CHANNELS 3 Zrotation Xrotation Yrotation
                JOINT rPinky2
                {
                  OFFSET -1.82734 -0.647385 -0.700984
                  CHANNELS 3 Zrotation Xrotation Yrotation
                  End Site
                  {
                    OFFSET -1.69225 -0.51767 -0.607171
                  }
                }
              }
            }
          }
        }
      }
      JOINT lCollar
      {
        OFFSET 2.68224 19.2634 -4.8768
        CHANNELS 3 Zrotation Xrotation Yrotation
        JOINT lShldr
        {
          OFFSET 8.77824 -1.95073 1.46304
          CHANNELS 3 Zrotation Xrotation Yrotation
          JOINT lForeArm
          {
            OFFSET 28.1742 -1.7115 0.48768
            CHANNELS 3 Zrotation Xrotation Yrotation
            JOINT lHand
            {
              OFFSET 22.5879 0.773209 7.07136
              CHANNELS 3 Zrotation Xrotation Yrotation
              JOINT lThumb1
              {
                OFFSET 1.2192 -0.487915 3.41376
                CHANNELS 3 Zrotation Xrotation Yrotation
                JOINT lThumb2
                {
                  OFFSET 3.37035 -0.52449 3.41376
                  CHANNELS 3 Zrotation Xrotation Yrotation
                  End Site
                  {
                    OFFSET 1.78271 -1.18214 1.43049
                  }
                }
              }
              JOINT lIndex1
              {
                OFFSET 7.75947 0.938293 5.60832
                CHANNELS 3 Zrotation Xrotation Yrotation
                JOINT lIndex2
                {
                  OFFSET 2.54057 -0.884171 1.56538
                  CHANNELS 3 Zrotation Xrotation Yrotation
                  End Site
                  {
                    OFFSET 1.62519 -0.234802 1.16502
                  }
                }
              }
              JOINT lMid1
              {
                OFFSET 8.24714 1.18213 3.41376
                CHANNELS 3 Zrotation Xrotation Yrotation
                JOINT lMid2
                {
                  OFFSET 3.10165 -0.590103 1.0647
                  CHANNELS 3 Zrotation Xrotation Yrotation
                  End Site
                  {
                    OFFSET 2.48547 -0.328903 0.83742
                  }
                }
              }
              JOINT lRing1
              {
                OFFSET 8.82822 0.546677 1.51678
                CHANNELS 3 Zrotation Xrotation Yrotation
                JOINT lRing2
                {
                  OFFSET 2.60934 -0.819778 -0.0198488
                  CHANNELS 3 Zrotation Xrotation Yrotation
                  End Site
                  {
                    OFFSET 2.33842 -0.294052 0.168128
                  }
                }
              }
              JOINT lPinky1
              {
                OFFSET 8.27202 -0.0477905 -0.4584
                CHANNELS 3 Zrotation Xrotation Yrotation
                JOINT lPinky2
                {
                  OFFSET 1.82734 -0.647385 -0.700984
                  CHANNELS 3 Zrotation Xrotation Yrotation
                  End Site
                  {
                    OFFSET 1.69225 -0.51767 -0.607171
                  }
                }
              }
            }
          }
        }
      }
    }
  }
  JOINT rButtock
  {
    OFFSET -8.77824 4.35084 1.2192
    CHANNELS 3 Zrotation Xrotation Yrotation
    JOINT rThigh
    {
      OFFSET 0 -1.70687 -2.19456
      CHANNELS 3 Zrotation Xrotation Yrotation
      JOINT rShin
      {
        OFFSET 0 -36.8199 0.73152
        CHANNELS 3 Zrotation Xrotation Yrotation
        JOINT rFoot
        {
          OFFSET 0.73152 -45.1104 -5.12064
          CHANNELS 3 Zrotation Xrotation Yrotation
          End Site
          {
            OFFSET -1.1221 -3.69964 12.103
          }
        }
      }
    }
  }
  JOINT lButtock
  {
    OFFSET 8.77824 4.35084 1.2192
    CHANNELS 3 Zrotation Xrotation Yrotation
    JOINT lThigh
    {
      OFFSET 0 -1.70687 -2.19456
      CHANNELS 3 Zrotation Xrotation Yrotation
      JOINT lShin
      {
        OFFSET 0 -36.8199 0.73152
        CHANNELS 3 Zrotation Xrotation Yrotation
        JOINT lFoot
        {
          OFFSET -0.73152 -45.1104 -5.12064
          CHANNELS 3 Zrotation Xrotation Yrotation
          End Site
          {
            OFFSET 1.1221 -3.69964 12.103
          }
        }
      }
    }
  }
}
MOTION
Frames:	4
Frame Time:	0.03333
-0.017899999395012856 68.96710205078125 1.4944000244140625 -5.423400141298771 -9.16389986872673 4.584599956870079 1.0431700106710196 15.826399773359299 15.091300159692764 -2.15038999915123 -10.827000215649605 3.884679861366749 -5.815560221672058 11.650200337171555 -4.152979888021946 0.6355099892243743 -28.50749909877777 -7.688910216093063 0.0 0.0 0.0 0.0 0.0 0.0 0.0 0.0 0.0 20.867199897766113 24.264700412750244 61.396000385284424 -27.911498844623566 -29.482500851154327 66.64929986000061 0.04590919765178114 -0.005967619727016427 0.007432399870594963 -4.015987542516086e-10 1.6780177247710526e-09 1.3710632629226893e-09 -6.804157237638719e-10 2.9314151106518693e-09 2.3788970793248154e-09 -4.015987542516086e-10 1.6780177247710526e-09 1.3710632629226893e-09 7.7309102565050125 5.474880114197731 0.41731400415301323 -4.015987542516086e-10 1.6780177247710526e-09 1.3710632629226893e-09 2.905540131032467 0.9651830233633518 0.102901995414868 -4.015987542516086e-10 1.6780177247710526e-09 1.3710632629226893e-09 10.27859978377819 0.7318009994924068 0.025912300043273717 -4.015987542516086e-10 1.6780177247710526e-09 1.3710632629226893e-09 2.221670038998127 -0.733487019315362 -0.2089200052432716 0.0 0.0 0.0 -77.58600175380707 63.62599968910217 -8.191159889101982 27.14260071516037 -26.83870106935501 -62.15069890022278 1.447530034929514 -32.764001190662384 5.152309946715832 1.2738610166707076e-09 8.3082341006957e-09 2.7984015105175786e-09 2.119264763678075e-09 1.4165948414301965e-08 4.860112312599085e-09 1.2738610166707076e-09 8.3082341006957e-09 2.7984015105175786e-09 -7.7309102565050125 5.474880114197731 -0.41731400415301323 1.2738610166707076e-09 8.3082341006957e-09 2.7984015105175786e-09 -2.905540131032467 0.9651830233633518 -0.102901995414868 1.2738610166707076e-09 8.3082341006957e-09 2.7984015105175786e-09 -10.27859978377819 0.7318009994924068 -0.025912300043273717 1.2738610166707076e-09 8.3082341006957e-09 2.7984015105175786e-09 -2.221670038998127 -0.733487019315362 0.2089200052432716 0.0 0.0 0.0 -10.333900228142738 -21.143999844789505 -4.903140105307102 -3.360910154879093 76.21289849281311 3.905169926583767 -4.170359931886196 -10.634099766612053 -9.525540098547935 0.0 0.0 0.0 29.533100724220276 -62.684597969055176 24.577301144599915 1.1187799740582705 57.36639976501465 -0.5115939863026142 -0.1377690047957003 5.135389901697636 -4.383620023727417
-0.04490000009536743 69.527099609375 3.0744000673294067 -4.355200007557869 -7.626200169324875 3.579600043594837 -0.3835439868271351 16.72940030694008 16.087499409914017 -2.8362898528575897 -10.988400131464005 4.061969853937626 -5.603340156376362 11.903599351644516 -4.875940158963203 0.6895029824227095 -28.20149928331375 -9.160280227661133 0.0 0.0 0.0 0.0 0.0 0.0 0.0 0.0 0.0 18.617800176143646 14.225700348615646 66.77870035171509 -26.184199154376984 -24.128299355506897 56.30610108375549 -0.16178599675185978 10.974799990653992 1.5497000701725483 -7.098321930243401e-10 -2.1998403099132702e-10 1.4068746168049984e-09 -1.2252598935447168e-09 -3.7346126191550866e-10 2.4351720639970154e-09 -7.098321930243401e-10 -2.1998403099132702e-10 1.4068746168049984e-09 7.7309102565050125 5.474880114197731 0.41731400415301323 -7.098321930243401e-10 -2.1998403099132702e-10 1.4068746168049984e-09 2.905540131032467 0.9651830233633518 0.102901995414868 -7.098321930243401e-10 -2.1998403099132702e-10 1.4068746168049984e-09 10.27859978377819 0.7318009994924068 0.025912300043273717 -7.098321930243401e-10 -2.1998403099132702e-10 1.4068746168049984e-09 2.221670038998127 -0.733487019315362 -0.2089200052432716 0.0 0.0 0.0 -87.24530160427094 62.92370080947876 3.841709867119789 27.77139902114868 -29.30950105190277 -66.04889810085297 2.7769500017166138 -41.69040083885193 7.206219881772995 1.2009593319817213e-09 6.246523298614193e-09 2.0156676328042522e-09 2.0054358174093068e-09 1.0595044841466006e-08 3.5146285881637596e-09 1.2009593319817213e-09 6.246523298614193e-09 2.0156676328042522e-09 -7.7309102565050125 5.474880114197731 -0.41731400415301323 1.2009593319817213e-09 6.246523298614193e-09 2.0156676328042522e-09 -2.905540131032467 0.9651830233633518 -0.102901995414868 1.2009593319817213e-09 6.246523298614193e-09 2.0156676328042522e-09 -10.27859978377819 0.7318009994924068 -0.025912300043273717 1.2009593319817213e-09 6.246523298614193e-09 2.0156676328042522e-09 -2.221670038998127 -0.733487019315362 0.2089200052432716 0.0 0.0 0.0 -10.720800161361694 -23.177799582481384 -4.239540137350559 -3.2984401658177376 76.02960169315338 3.863399885594845 -5.418320037424564 -11.822600662708282 -12.536800503730774 0.0 0.0 0.0 26.18220090866089 -61.49700164794922 23.46990019083023 1.0847500339150429 56.95830166339874 -0.5245659872889519 -0.2153120026923716 4.206999912858009 -5.551900081336498
-0.3659000098705292 70.2063980102539 4.518900036811829 -2.915399931371212 -5.19420001655817 2.5829999707639217 -2.02934006229043 17.949099987745285 16.66470006108284 -3.3956098929047585 -11.383399665355682 4.111569933593273 -5.671009942889214 12.20329999923706 -5.75609028339386 1.536679957062006 -27.53469944000244 -10.714700147509575 0.0 0.0 0.0 0.0 0.0 0.0 0.0 0.0 0.0 18.047099858522415 5.3919100016355515 71.4957994222641 -22.35939994454384 -16.550600230693817 43.273000717163086 -0.5047789961099625 20.13709992170334 2.9424701258540154 -5.653078005707357e-10 -1.887769940367434e-09 -7.315748007385992e-10 -9.950440471584443e-10 -3.2997604648699053e-09 -1.2585132935782894e-09 -5.653078005707357e-10 -1.887769940367434e-09 -7.315748007385992e-10 7.7309102565050125 5.474880114197731 0.41731400415301323 -5.653078005707357e-10 -1.887769940367434e-09 -7.315748007385992e-10 2.905540131032467 0.9651830233633518 0.102901995414868 -5.653078005707357e-10 -1.887769940367434e-09 -7.315748007385992e-10 10.27859978377819 0.7318009994924068 0.025912300043273717 -5.653078005707357e-10 -1.887769940367434e-09 -7.315748007385992e-10 2.221670038998127 -0.733487019315362 -0.2089200052432716 0.0 0.0 0.0 -93.36530327796936 62.849001288414 13.625699579715729 28.214001059532166 -31.892500519752502 -70.09299874305725 3.8738299906253815 -47.44540214538574 8.800209760665894 8.108713700494263e-10 3.28952864947496e-09 3.12070369545836e-10 1.3864109860151075e-09 5.617266651825048e-09 5.678657544194721e-10 8.108713700494263e-10 3.28952864947496e-09 3.12070369545836e-10 -7.7309102565050125 5.474880114197731 -0.41731400415301323 8.108713700494263e-10 3.28952864947496e-09 3.12070369545836e-10 -2.905540131032467 0.9651830233633518 -0.102901995414868 8.108713700494263e-10 3.28952864947496e-09 3.12070369545836e-10 -10.27859978377819 0.7318009994924068 -0.025912300043273717 8.121503469737945e-10 3.28952864947496e-09 3.12070369545836e-10 -2.221670038998127 -0.733487019315362 0.2089200052432716 0.0 0.0 0.0 -10.98109982907772 -23.903699219226837 -3.1477100774645805 -2.6663799583911896 73.71859967708588 3.2876399159431458 -7.178719863295555 -12.781199365854263 -16.708599776029587 0.0 0.0 0.0 21.537699848413467 -59.818899035453796 21.024000495672226 1.023489972576499 56.16069853305817 -0.5353340087458491 -0.3125699912197888 3.2964999228715897 -7.051640152931213
-0.8446000218391418 70.72660064697266 5.867400050163269 -2.6953000389039516 -1.4731000363826752 2.4117000214755535 -2.17531006783247 18.027499616146088 16.85130000114441 -3.7750398740172386 -11.469199508428574 4.149960055947304 -6.077709943056107 12.764399349689484 -6.965460106730461 2.611090075224638 -27.22489893436432 -12.881599813699722 0.0 0.0 0.0 0.0 0.0 0.0 0.0 0.0 0.0 17.587500661611557 -0.5753060057759285 73.99730265140533 -17.14739978313446 -9.681289941072464 32.94120132923126 -0.9745349641889334 26.52909904718399 4.0304699912667274 -7.763389930914855e-10 -3.616946742113214e-09 -1.61662683240138e-09 -1.368505309073953e-09 -6.2874505601939745e-09 -2.7830537874251604e-09 -7.763389930914855e-10 -3.616946742113214e-09 -1.61662683240138e-09 7.7309102565050125 5.474880114197731 0.41731400415301323 -7.763389930914855e-10 -3.616946742113214e-09 -1.61662683240138e-09 2.905540131032467 0.9651830233633518 0.102901995414868 -7.763389930914855e-10 -3.616946742113214e-09 -1.61662683240138e-09 10.27859978377819 0.7318009994924068 0.025912300043273717 -7.763389930914855e-10 -3.616946742113214e-09 -1.61662683240138e-09 2.221670038998127 -0.733487019315362 -0.2089200052432716 0.0 0.0 0.0 -97.04320192337036 62.3449981212616 20.804700404405594 28.316901326179504 -33.32769960165024 -72.76900112628937 4.494919963181019 -49.863799810409546 9.615060165524483 1.6754597709223162e-10 6.190248313941993e-10 -5.729816621169448e-10 3.069544618483633e-10 1.099920154956635e-09 -9.822542779147625e-10 1.6754597709223162e-10 6.190248313941993e-10 -5.729816621169448e-10 -7.7309102565050125 5.474880114197731 -0.41731400415301323 1.6754597709223162e-10 6.190248313941993e-10 -5.729816621169448e-10 -2.905540131032467 0.9651830233633518 -0.102901995414868 1.6754597709223162e-10 6.190248313941993e-10 -5.729816621169448e-10 -10.27859978377819 0.7318009994924068 -0.025912300043273717 1.6754597709223162e-10 6.190248313941993e-10 -5.729816621169448e-10 -2.221670038998127 -0.733487019315362 0.2089200052432716 0.0 0.0 0.0 -9.9709302932024 -24.74080055952072 -1.9580100663006306 -2.043060064315796 70.42929947376251 2.7432500571012497 -9.005929827690125 -13.489999920129776 -20.896099358797073 0.0 0.0 0.0 17.87169948220253 -59.5268976688385 17.91420042514801 0.9821970295161009 55.75689733028412 -0.5833690194413066 -0.4158900026232004 2.6042499393224716 -8.661039993166924
